<mxfile host="Electron" agent="Mozilla/5.0 (X11; Linux x86_64) AppleWebKit/537.36 (KHTML, like Gecko) draw.io/28.0.6 Chrome/138.0.7204.100 Electron/37.2.3 Safari/537.36" version="28.0.6">
  <diagram name="Computer Vision System Flowchart" id="Hvp-PqSAHcPXQY2F69Uc">
    <mxGraphModel dx="1389" dy="750" grid="1" gridSize="10" guides="1" tooltips="1" connect="1" arrows="1" fold="1" page="1" pageScale="1" pageWidth="850" pageHeight="1100" math="0" shadow="0">
      <root>
        <mxCell id="0" />
        <mxCell id="1" parent="0" />
        <mxCell id="W-TnV_nmgamyOJQ0oiMI-1" value="Start" style="shape=ellipse;whiteSpace=wrap;html=1;fillColor=#a7d3f2;strokeColor=#246bb2;shadow=1;fontSize=14;fontStyle=1;" vertex="1" parent="1">
          <mxGeometry x="30" y="165" width="130" height="90" as="geometry" />
        </mxCell>
        <mxCell id="W-TnV_nmgamyOJQ0oiMI-2" value="Input Data&#xa;(Hình ảnh / Video / Cảm biến)" style="shape=rectangle;rounded=1;whiteSpace=wrap;html=1;fillColor=#b7e1cd;strokeColor=#3a7d44;shadow=1;fontSize=14;" vertex="1" parent="1">
          <mxGeometry x="195" y="165" width="280" height="80" as="geometry" />
        </mxCell>
        <mxCell id="W-TnV_nmgamyOJQ0oiMI-3" value="Pre-processing&#xa;(Giảm nhiễu, Chuẩn hóa, Resize...)" style="shape=rectangle;rounded=1;whiteSpace=wrap;html=1;fillColor=#ffe082;strokeColor=#c79600;shadow=1;fontSize=14;" vertex="1" parent="1">
          <mxGeometry x="510" y="170" width="290" height="80" as="geometry" />
        </mxCell>
        <mxCell id="W-TnV_nmgamyOJQ0oiMI-4" value="Feature Extraction&#xa;(Canny, SIFT/HOG, CNN...)" style="shape=rectangle;rounded=1;whiteSpace=wrap;html=1;fillColor=#f28c8c;strokeColor=#a33c3c;shadow=1;fontSize=14;" vertex="1" parent="1">
          <mxGeometry x="510" y="300" width="290" height="120" as="geometry" />
        </mxCell>
        <mxCell id="W-TnV_nmgamyOJQ0oiMI-5" value="Analysis &amp; Recognition&#xa;(Classification, Detection, Segmentation...)" style="shape=rectangle;rounded=1;whiteSpace=wrap;html=1;fillColor=#d1c4e9;strokeColor=#673ab7;shadow=1;fontSize=14;" vertex="1" parent="1">
          <mxGeometry x="200" y="300" width="270" height="130" as="geometry" />
        </mxCell>
        <mxCell id="W-TnV_nmgamyOJQ0oiMI-6" value="Output&#xa;(Hiển thị, Tín hiệu điều khiển, Lưu trữ)" style="shape=rectangle;rounded=1;whiteSpace=wrap;html=1;fillColor=#aed581;strokeColor=#558b2f;shadow=1;fontSize=14;" vertex="1" parent="1">
          <mxGeometry x="200" y="480" width="270" height="60" as="geometry" />
        </mxCell>
        <mxCell id="W-TnV_nmgamyOJQ0oiMI-7" value="End" style="shape=ellipse;whiteSpace=wrap;html=1;fillColor=#a7d3f2;strokeColor=#246bb2;shadow=1;fontSize=14;fontStyle=1;" vertex="1" parent="1">
          <mxGeometry x="610" y="470" width="170" height="80" as="geometry" />
        </mxCell>
        <mxCell id="W-TnV_nmgamyOJQ0oiMI-8" style="endArrow=block;endFill=1;strokeColor=#444444;" edge="1" parent="1" source="W-TnV_nmgamyOJQ0oiMI-1" target="W-TnV_nmgamyOJQ0oiMI-2">
          <mxGeometry relative="1" as="geometry" />
        </mxCell>
        <mxCell id="W-TnV_nmgamyOJQ0oiMI-9" style="endArrow=block;endFill=1;strokeColor=#444444;" edge="1" parent="1" source="W-TnV_nmgamyOJQ0oiMI-2" target="W-TnV_nmgamyOJQ0oiMI-3">
          <mxGeometry relative="1" as="geometry" />
        </mxCell>
        <mxCell id="W-TnV_nmgamyOJQ0oiMI-10" style="endArrow=block;endFill=1;strokeColor=#444444;" edge="1" parent="1" source="W-TnV_nmgamyOJQ0oiMI-3" target="W-TnV_nmgamyOJQ0oiMI-4">
          <mxGeometry relative="1" as="geometry" />
        </mxCell>
        <mxCell id="W-TnV_nmgamyOJQ0oiMI-11" style="endArrow=block;endFill=1;strokeColor=#444444;" edge="1" parent="1" source="W-TnV_nmgamyOJQ0oiMI-4" target="W-TnV_nmgamyOJQ0oiMI-5">
          <mxGeometry relative="1" as="geometry" />
        </mxCell>
        <mxCell id="W-TnV_nmgamyOJQ0oiMI-12" style="endArrow=block;endFill=1;strokeColor=#444444;" edge="1" parent="1" source="W-TnV_nmgamyOJQ0oiMI-5" target="W-TnV_nmgamyOJQ0oiMI-6">
          <mxGeometry relative="1" as="geometry" />
        </mxCell>
        <mxCell id="W-TnV_nmgamyOJQ0oiMI-13" style="endArrow=block;endFill=1;strokeColor=#444444;" edge="1" parent="1" source="W-TnV_nmgamyOJQ0oiMI-6" target="W-TnV_nmgamyOJQ0oiMI-7">
          <mxGeometry relative="1" as="geometry" />
        </mxCell>
      </root>
    </mxGraphModel>
  </diagram>
</mxfile>
